<svg id="Layer_1" data-name="Layer 1" xmlns="http://www.w3.org/2000/svg" xmlns:xlink="http://www.w3.org/1999/xlink" viewBox="0 0 520 520"><defs><style>.cls-1{fill:url(#linear-gradient);}.cls-2{fill:url(#linear-gradient-2);}.cls-3{fill:url(#linear-gradient-3);}.cls-4{fill:#263b95;}.cls-5{fill:url(#linear-gradient-4);}.cls-6{fill:#3c3132;}.cls-7{fill:url(#linear-gradient-5);}.cls-8{fill:url(#linear-gradient-6);}.cls-9{fill:url(#linear-gradient-7);}</style><linearGradient id="linear-gradient" x1="57.46" y1="125.32" x2="138.18" y2="437.33" gradientUnits="userSpaceOnUse"><stop offset="0" stop-color="#263b95"/><stop offset="0.96" stop-color="#006eb7"/></linearGradient><linearGradient id="linear-gradient-2" x1="226.8" y1="281.14" x2="304.86" y2="211.24" xlink:href="#linear-gradient"/><linearGradient id="linear-gradient-3" x1="165.74" y1="456.86" x2="138.82" y2="131.98" xlink:href="#linear-gradient"/><linearGradient id="linear-gradient-4" x1="248.57" y1="416.29" x2="369.3" y2="246.46" xlink:href="#linear-gradient"/><linearGradient id="linear-gradient-5" x1="403.27" y1="251.37" x2="438.85" y2="251.37" gradientUnits="userSpaceOnUse"><stop offset="0" stop-color="#23368c"/><stop offset="0.96" stop-color="#006eb7"/></linearGradient><linearGradient id="linear-gradient-6" x1="366.44" y1="381.27" x2="458.17" y2="313.35" gradientUnits="userSpaceOnUse"><stop offset="0" stop-color="#263b95"/><stop offset="0.96" stop-color="#3c3132"/></linearGradient><linearGradient id="linear-gradient-7" x1="338.24" y1="245.18" x2="386.39" y2="179.08" xlink:href="#linear-gradient-6"/></defs><polygon class="cls-1" points="81.02 100.62 168.99 470.32 96.83 393.22 37.52 146.09 81.02 100.62"/><polygon class="cls-2" points="324.19 209.36 232.26 306.23 219.41 257.79 324.19 209.36"/><polygon class="cls-3" points="93.87 91.72 182.83 160.92 183.82 475.26 93.87 91.72"/><polygon class="cls-4" points="182.83 160.92 224.35 334.9 340.99 212.32 183.82 475.26 182.83 160.92"/><polygon class="cls-5" points="340.99 212.32 403.27 272.62 183.82 475.26 340.99 212.32"/><polygon class="cls-6" points="432.92 93.7 438.85 409.03 482.35 160.92 432.92 93.7"/><polygon class="cls-7" points="432.92 93.7 403.27 272.62 438.85 409.03 432.92 93.7"/><polygon class="cls-8" points="403.27 272.62 350.88 321.06 438.85 409.03 403.27 272.62"/><polygon class="cls-4" points="395.36 246.92 365.7 127.31 421.06 90.74 395.36 246.92"/><polygon class="cls-9" points="365.7 127.31 395.36 246.92 346.92 200.46 365.7 127.31"/></svg>