<svg id="Layer_1" data-name="Layer 1" xmlns="http://www.w3.org/2000/svg" viewBox="0 0 160 160"><defs><style>.cls-1{fill:#fff;}</style></defs><path class="cls-1" d="M61.46,135.79c0,4.93.14,9.66-.05,14.37-.11,2.63-2.63,3.81-5.5,2.83a70.91,70.91,0,0,1-21.4-11.6c-16.16-12.84-25.79-29.46-28.43-50A74.57,74.57,0,0,1,63.21,8.74c24.24-5.63,46.22,0,65.25,16.08A72,72,0,0,1,153.37,68.4a75.23,75.23,0,0,1-48.9,84.47c-3.81,1.35-6-.21-6-4.23,0-6.1,0-12.19.11-18.29.07-5.56-.64-10.86-4.74-15.17,3.32-.68,6.52-1.17,9.64-2,14.27-3.71,22.56-13.75,23.79-28.46.47-5.58.88-11.18-1.19-16.47A61.31,61.31,0,0,0,121,59a2.84,2.84,0,0,1-.59-2.67c1.81-5.88,1.17-11.67-.74-17.41-.34-1-1-1.53-2-1.3a60.27,60.27,0,0,0-9,2.33c-3.1,1.25-5.9,3.22-8.88,4.76a3.75,3.75,0,0,1-2.42.4,71.9,71.9,0,0,0-34.41,0,3.39,3.39,0,0,1-3-.48c-4.81-3.14-9.8-5.94-15.6-6.85-.7-.11-1.41-.12-2.12-.19-1.05-.1-1.57.38-1.91,1.39a29,29,0,0,0-.73,17.59,2.57,2.57,0,0,1-.39,2c-5.6,6.92-7.46,14.83-6.7,23.58a44.24,44.24,0,0,0,3.49,14.92c4.32,9.36,12.11,14.19,21.78,16.47,2.68.63,5.42,1,8.31,1.56a17.7,17.7,0,0,0-4.35,9.24,2,2,0,0,1-1.14,1.12c-8.29,3.28-15.77,1.48-20.53-6.44-2.4-4-5.71-6.93-10.48-7.77a8.08,8.08,0,0,0-3.13.15c-1.59.37-1.81,1.31-.68,2.54a8.59,8.59,0,0,0,1.76,1.48,17.92,17.92,0,0,1,7.94,9.7c3.22,9.16,12.07,12.08,20.27,11.35C57.58,136.35,59.33,136.07,61.46,135.79Z"/></svg>