<svg id="Layer_1" data-name="Layer 1" xmlns="http://www.w3.org/2000/svg" viewBox="0 0 160 160"><defs><style>.cls-1{fill:#fff;}</style></defs><path class="cls-1" d="M80,151.33c-17.72,0-20-.08-27.06-.4a50,50,0,0,1-16.52-3.17,33.85,33.85,0,0,1-12.27-8,33.85,33.85,0,0,1-8-12.27A50,50,0,0,1,13,111c-.32-7-.4-9.34-.4-27.06s.08-20,.4-27.06a50,50,0,0,1,3.17-16.52,33.85,33.85,0,0,1,8-12.27,33.85,33.85,0,0,1,12.27-8,50,50,0,0,1,16.52-3.17c7-.32,9.34-.4,27.06-.4s20,.08,27.06.4a50,50,0,0,1,16.52,3.17,35.53,35.53,0,0,1,20.27,20.27A50,50,0,0,1,147,56.85c.32,7,.4,9.34.4,27.06s-.08,20-.4,27.06a50,50,0,0,1-3.17,16.52,35.53,35.53,0,0,1-20.27,20.27,50,50,0,0,1-16.52,3.17C100.05,151.25,97.72,151.33,80,151.33Zm0-119c-17.42,0-19.48.06-26.34.38-6.09.27-9.36,1.27-11.52,2.12A19.63,19.63,0,0,0,30.87,46.05C30,48.21,29,51.48,28.75,57.57c-.32,6.85-.38,8.91-.38,26.34s.06,19.49.38,26.34c.27,6.09,1.27,9.36,2.12,11.52A19.63,19.63,0,0,0,42.14,133a34.14,34.14,0,0,0,11.52,2.12c6.87.32,8.93.38,26.34.38s19.47-.06,26.34-.38A34.14,34.14,0,0,0,117.86,133a19.63,19.63,0,0,0,11.27-11.27c.85-2.16,1.85-5.43,2.12-11.52.32-6.85.38-8.91.38-26.34s-.06-19.49-.38-26.34c-.27-6.09-1.27-9.36-2.12-11.52a19.63,19.63,0,0,0-11.27-11.27c-2.16-.85-5.43-1.85-11.52-2.12C99.48,32.34,97.42,32.28,80,32.28Z"/><path class="cls-1" d="M80,119.5a35.59,35.59,0,1,1,35.59-35.59A35.62,35.62,0,0,1,80,119.5Zm0-55.4A19.81,19.81,0,1,0,99.81,83.91,19.84,19.84,0,0,0,80,64.1Z"/><path class="cls-1" d="M114.92,58.84A9.85,9.85,0,1,1,124.77,49,9.86,9.86,0,0,1,114.92,58.84Z"/></svg>