<svg id="Layer_1" data-name="Layer 1" xmlns="http://www.w3.org/2000/svg" viewBox="0 0 160 160"><defs><style>.cls-1{fill:#fff;}</style></defs><path class="cls-1" d="M119.51,57.07c4.24.19,9.41.27,14.27,1.68,9,2.6,14.52,8.46,17.36,18.45,2.31,8.17,2.64,16.64,2.66,24.58v51.79c-3.51,0-16.82,0-19.95,0q.06-24.51,0-49A54.33,54.33,0,0,0,132,89.46C129,79,121.12,73,110.42,73,95.66,73,83.16,92.15,83.16,99.61V106s0,37,0,47.59c-3.37,0-20.08,0-20.08,0q.07-46.93,0-93.83H81.74c0,1.46,0,21.65,0,21.65a64.15,64.15,0,0,1,10.41-13C101.35,60.15,110.79,56.7,119.51,57.07Z"/><path class="cls-1" d="M8.77,59.74l10.38,0c3.23,0,6.47,0,9.7,0,0,0,0,82.09,0,93.8l-9.77,0-10.32,0Q8.82,106.64,8.77,59.74Z"/><path class="cls-1" d="M18.83,31.69A12.8,12.8,0,0,1,6.2,19.11,12.75,12.75,0,0,1,18.85,6.43,12.78,12.78,0,0,1,31.49,19a12.7,12.7,0,0,1-12.66,12.7Z"/></svg>